<svg width="107" height="25" viewBox="0 0 107 25" fill="none" xmlns="http://www.w3.org/2000/svg">
<path d="M6.95089 1.5258C8.81849 1.5258 10.3818 1.70417 11.6409 2.0609C12.9209 2.41764 13.8757 3.0052 14.5052 3.82358C15.1558 4.64197 15.481 5.73316 15.481 7.09714C15.481 7.97848 15.3131 8.76539 14.9774 9.45787C14.6626 10.1294 14.18 10.6959 13.5295 11.1576C12.8999 11.5983 12.1235 11.9025 11.2002 12.0704V12.2278C12.1445 12.3747 12.9944 12.6475 13.7498 13.0462C14.5262 13.4449 15.1348 14.0115 15.5754 14.7459C16.0161 15.4804 16.2364 16.4352 16.2364 17.6103C16.2364 18.9743 15.9217 20.1389 15.2922 21.1042C14.6626 22.0485 13.7603 22.7724 12.5852 23.276C11.431 23.7587 10.0461 24 8.43028 24H0.529688V1.5258H6.95089ZM7.51746 11.0946C9.44802 11.0946 10.77 10.7904 11.4835 10.1818C12.197 9.5523 12.5537 8.62899 12.5537 7.4119C12.5537 6.17383 12.113 5.29249 11.2317 4.76788C10.3713 4.22229 8.98637 3.94949 7.07679 3.94949H3.36257V11.0946H7.51746ZM3.36257 13.4554V21.6078H7.89518C9.88869 21.6078 11.2737 21.2196 12.0501 20.4432C12.8265 19.6667 13.2147 18.649 13.2147 17.3899C13.2147 16.5925 13.0363 15.9001 12.6796 15.3125C12.3439 14.7249 11.7668 14.2738 10.9484 13.959C10.151 13.6233 9.05981 13.4554 7.67485 13.4554H3.36257ZM23.3939 7.12861V24H20.624V7.12861H23.3939ZM22.0404 0.801844C22.4601 0.801844 22.8273 0.948734 23.1421 1.24251C23.4778 1.51531 23.6457 1.95598 23.6457 2.56453C23.6457 3.15209 23.4778 3.59276 23.1421 3.88654C22.8273 4.18032 22.4601 4.32721 22.0404 4.32721C21.5788 4.32721 21.1905 4.18032 20.8758 3.88654C20.561 3.59276 20.4036 3.15209 20.4036 2.56453C20.4036 1.95598 20.561 1.51531 20.8758 1.24251C21.1905 0.948734 21.5788 0.801844 22.0404 0.801844ZM34.3733 22.0485C34.793 22.0485 35.2231 22.017 35.6638 21.954C36.1045 21.8701 36.4612 21.7862 36.734 21.7022V23.8111C36.4402 23.958 36.0206 24.0734 35.475 24.1574C34.9294 24.2623 34.4048 24.3148 33.9011 24.3148C33.0198 24.3148 32.2014 24.1679 31.446 23.8741C30.7115 23.5593 30.1135 23.0242 29.6518 22.2688C29.1902 21.5134 28.9593 20.4537 28.9593 19.0897V9.26901H26.5671V7.947L28.9908 6.84533L30.0925 3.25701H31.7293V7.12861H36.6081V9.26901H31.7293V19.0267C31.7293 20.0549 31.9706 20.8209 32.4532 21.3245C32.9568 21.8071 33.5969 22.0485 34.3733 22.0485ZM58.6834 24H53.9305V14.3052H45.0227V24H40.2697V1.5258H45.0227V10.3392H53.9305V1.5258H58.6834V24ZM68.6504 6.81385V24H63.9604V6.81385H68.6504ZM66.3212 0.0778849C67.0136 0.0778849 67.6117 0.24576 68.1153 0.581509C68.6189 0.896274 68.8707 1.49433 68.8707 2.37567C68.8707 3.23602 68.6189 3.83408 68.1153 4.16983C67.6117 4.50557 67.0136 4.67345 66.3212 4.67345C65.6077 4.67345 64.9991 4.50557 64.4955 4.16983C64.0129 3.83408 63.7716 3.23602 63.7716 2.37567C63.7716 1.49433 64.0129 0.896274 64.4955 0.581509C64.9991 0.24576 65.6077 0.0778849 66.3212 0.0778849ZM77.6428 24L71.0957 6.81385H76.0061L79.3111 16.603C79.437 16.9807 79.5419 17.3794 79.6259 17.7991C79.7308 18.2188 79.8042 18.628 79.8462 19.0267C79.9092 19.4254 79.9511 19.7926 79.9721 20.1284H80.098C80.119 19.7717 80.161 19.3939 80.2239 18.9952C80.2869 18.5965 80.3603 18.1978 80.4443 17.7991C80.5492 17.3794 80.6646 16.9807 80.7905 16.603L84.0955 6.81385H89.0059L82.4587 24H77.6428ZM98.5538 6.49908C100.149 6.49908 101.513 6.80336 102.646 7.4119C103.8 8.02045 104.692 8.90179 105.321 10.0559C105.951 11.2101 106.266 12.6265 106.266 14.3052V16.5716H95.1858C95.2278 17.8936 95.616 18.9323 96.3504 19.6877C97.1059 20.4432 98.1446 20.8209 99.4666 20.8209C100.579 20.8209 101.586 20.716 102.488 20.5061C103.391 20.2753 104.324 19.929 105.29 19.4674V23.0872C104.45 23.5069 103.559 23.8111 102.614 24C101.691 24.2098 100.568 24.3148 99.2463 24.3148C97.5256 24.3148 96.0042 24 94.6822 23.3705C93.3602 22.72 92.3215 21.7442 91.566 20.4432C90.8106 19.1421 90.4329 17.5054 90.4329 15.5328C90.4329 13.5183 90.7686 11.8501 91.4401 10.5281C92.1326 9.18508 93.0874 8.17783 94.3045 7.50633C95.5216 6.83483 96.938 6.49908 98.5538 6.49908ZM98.5853 9.83559C97.6829 9.83559 96.9275 10.1294 96.319 10.7169C95.7314 11.3045 95.3852 12.2173 95.2802 13.4554H101.859C101.859 12.7629 101.733 12.1439 101.481 11.5983C101.25 11.0527 100.894 10.6225 100.411 10.3077C99.9283 9.99297 99.3197 9.83559 98.5853 9.83559Z" fill="url(#paint0_linear_1_2)"/>
<defs>
<linearGradient id="paint0_linear_1_2" x1="104.512" y1="-9" x2="5.75756" y2="32.3149" gradientUnits="userSpaceOnUse">
<stop stop-color="#3D3ADA"/>
<stop offset="1" stop-color="#02F5C9"/>
</linearGradient>
</defs>
</svg>
