<svg width="103" height="24" viewBox="0 0 103 24" fill="none" xmlns="http://www.w3.org/2000/svg">
<path d="M7.07125 1.48215C8.85938 1.48215 10.3562 1.65293 11.5617 1.99448C12.7872 2.33603 13.7014 2.89859 14.3041 3.68215C14.927 4.46572 15.2384 5.51047 15.2384 6.81641C15.2384 7.66024 15.0777 8.41367 14.7562 9.07669C14.4548 9.71961 13.9927 10.2621 13.3699 10.7041C12.7672 11.126 12.0238 11.4173 11.1398 11.5781V11.7287C12.0439 11.8694 12.8576 12.1306 13.5809 12.5123C14.3242 12.894 14.9069 13.4365 15.3288 14.1397C15.7507 14.8429 15.9617 15.7571 15.9617 16.8822C15.9617 18.1881 15.6603 19.3032 15.0576 20.2274C14.4548 21.1315 13.5909 21.8247 12.4658 22.3068C11.3608 22.7689 10.0347 23 8.48769 23H0.923293V1.48215H7.07125ZM7.61372 10.6438C9.46212 10.6438 10.7279 10.3525 11.411 9.76984C12.0941 9.1671 12.4356 8.28308 12.4356 7.11778C12.4356 5.93239 12.0137 5.08855 11.1699 4.58627C10.3461 4.06389 9.02011 3.8027 7.1918 3.8027H3.63563V10.6438H7.61372ZM3.63563 12.9041V20.7096H7.97536C9.88404 20.7096 11.2101 20.3379 11.9535 19.5945C12.6968 18.8511 13.0685 17.8767 13.0685 16.6712C13.0685 15.9077 12.8977 15.2447 12.5562 14.6822C12.2347 14.1196 11.6822 13.6877 10.8987 13.3863C10.1352 13.0648 9.09043 12.9041 7.7644 12.9041H3.63563ZM22.8146 6.84654V23H20.1625V6.84654H22.8146ZM21.5187 0.788998C21.9205 0.788998 22.2721 0.929637 22.5735 1.21092C22.8949 1.4721 23.0557 1.89402 23.0557 2.47667C23.0557 3.03923 22.8949 3.46115 22.5735 3.74243C22.2721 4.02371 21.9205 4.16435 21.5187 4.16435C21.0767 4.16435 20.705 4.02371 20.4036 3.74243C20.1022 3.46115 19.9515 3.03923 19.9515 2.47667C19.9515 1.89402 20.1022 1.4721 20.4036 1.21092C20.705 0.929637 21.0767 0.788998 21.5187 0.788998ZM33.3267 21.1315C33.7286 21.1315 34.1404 21.1014 34.5624 21.0411C34.9843 20.9607 35.3258 20.8804 35.587 20.8V22.8192C35.3057 22.9598 34.9039 23.0703 34.3815 23.1507C33.8592 23.2511 33.3569 23.3014 32.8747 23.3014C32.0308 23.3014 31.2473 23.1607 30.524 22.8795C29.8208 22.5781 29.2482 22.0658 28.8062 21.3425C28.3642 20.6192 28.1432 19.6046 28.1432 18.2986V8.89586H25.8528V7.63011L28.1733 6.57531L29.2281 3.13969H30.7952V6.84654H35.4665V8.89586H30.7952V18.2383C30.7952 19.2228 31.0263 19.9562 31.4884 20.4384C31.9706 20.9005 32.5834 21.1315 33.3267 21.1315ZM56.6024 23H52.0517V13.7178H43.5229V23H38.9723V1.48215H43.5229V9.92052H52.0517V1.48215H56.6024V23ZM66.1453 6.54517V23H61.6549V6.54517H66.1453ZM63.9151 0.0958458C64.5781 0.0958458 65.1507 0.256577 65.6329 0.578039C66.1151 0.87941 66.3562 1.45201 66.3562 2.29585C66.3562 3.1196 66.1151 3.6922 65.6329 4.01366C65.1507 4.33512 64.5781 4.49585 63.9151 4.49585C63.232 4.49585 62.6494 4.33512 62.1672 4.01366C61.7051 3.6922 61.474 3.1196 61.474 2.29585C61.474 1.45201 61.7051 0.87941 62.1672 0.578039C62.6494 0.256577 63.232 0.0958458 63.9151 0.0958458ZM74.755 23L68.4865 6.54517H73.1879L76.3523 15.9178C76.4729 16.2794 76.5733 16.6612 76.6537 17.063C76.7541 17.4648 76.8245 17.8566 76.8646 18.2383C76.9249 18.6201 76.9651 18.9717 76.9852 19.2931H77.1057C77.1258 18.9516 77.166 18.5899 77.2263 18.2082C77.2866 17.8265 77.3569 17.4447 77.4372 17.063C77.5377 16.6612 77.6482 16.2794 77.7688 15.9178L80.9331 6.54517H85.6345L79.366 23H74.755ZM94.7762 6.2438C96.3031 6.2438 97.6091 6.53513 98.694 7.11778C99.799 7.70043 100.653 8.54426 101.256 9.64929C101.858 10.7543 102.16 12.1105 102.16 13.7178V15.8877H91.5515C91.5917 17.1534 91.9634 18.1479 92.6666 18.8712C93.3899 19.5945 94.3844 19.9562 95.6501 19.9562C96.715 19.9562 97.6794 19.8557 98.5433 19.6548C99.4072 19.4338 100.301 19.1023 101.225 18.6603V22.126C100.422 22.5279 99.568 22.8192 98.6638 23C97.7798 23.2009 96.7049 23.3014 95.4392 23.3014C93.7917 23.3014 92.3351 23 91.0693 22.3973C89.8036 21.7744 88.809 20.8402 88.0857 19.5945C87.3625 18.3488 87.0008 16.7817 87.0008 14.8931C87.0008 12.9644 87.3223 11.3671 87.9652 10.1013C88.6282 8.8155 89.5424 7.85111 90.7077 7.20819C91.873 6.56526 93.2291 6.2438 94.7762 6.2438ZM94.8063 9.43833C93.9424 9.43833 93.2191 9.71961 92.6364 10.2822C92.0739 10.8447 91.7424 11.7187 91.6419 12.9041H97.9406C97.9406 12.2411 97.82 11.6484 97.5789 11.126C97.3579 10.6036 97.0164 10.1918 96.5543 9.89039C96.0922 9.58902 95.5095 9.43833 94.8063 9.43833Z" fill="url(#paint0_linear_1_2)"/>
<defs>
<linearGradient id="paint0_linear_1_2" x1="100.214" y1="-9" x2="5.83499" y2="30.3816" gradientUnits="userSpaceOnUse">
<stop stop-color="#3D3ADA"/>
<stop offset="1" stop-color="#22D1EE"/>
</linearGradient>
</defs>
</svg>
